<svg width="34" height="40" viewBox="0 0 34 40" fill="none" xmlns="http://www.w3.org/2000/svg">
<mask id="path-1-outside-1_17232_158" maskUnits="userSpaceOnUse" x="0.807983" y="0" width="33" height="40" fill="black">
<rect fill="white" x="0.807983" width="33" height="40"/>
<path d="M17 37.112C16.6867 37.112 16.3733 37.0607 16.06 36.958C15.7467 36.8553 15.4587 36.6887 15.196 36.458C13.7733 35.15 12.3307 33.6933 10.868 32.088C9.40666 30.484 8.08 28.822 6.888 27.102C5.696 25.382 4.71733 23.6267 3.952 21.836C3.18666 20.0453 2.80533 18.2973 2.808 16.592C2.808 12.3613 4.18533 8.872 6.94 6.124C9.696 3.37467 13.0493 2 17 2C20.9507 2 24.304 3.37467 27.06 6.124C29.8147 8.872 31.192 12.3613 31.192 16.592C31.192 18.2973 30.8107 20.0393 30.048 21.818C29.2853 23.5953 28.3133 25.35 27.132 27.082C25.952 28.8153 24.6313 30.478 23.17 32.07C21.7087 33.662 20.2653 35.112 18.84 36.42C18.5853 36.6507 18.296 36.824 17.972 36.94C17.6467 37.0547 17.322 37.112 16.998 37.112M17.006 19.462C17.8953 19.462 18.6553 19.1447 19.286 18.51C19.9153 17.8767 20.23 17.1147 20.23 16.224C20.23 15.3333 19.9127 14.5733 19.278 13.944C18.6433 13.3147 17.8813 13 16.992 13C16.1027 13 15.3427 13.3173 14.712 13.952C14.0813 14.5867 13.7667 15.3487 13.768 16.238C13.7693 17.1273 14.086 17.8873 14.718 18.518C15.35 19.1487 16.1127 19.4633 17.006 19.462Z"/>
</mask>
<path d="M17 37.112C16.6867 37.112 16.3733 37.0607 16.06 36.958C15.7467 36.8553 15.4587 36.6887 15.196 36.458C13.7733 35.15 12.3307 33.6933 10.868 32.088C9.40666 30.484 8.08 28.822 6.888 27.102C5.696 25.382 4.71733 23.6267 3.952 21.836C3.18666 20.0453 2.80533 18.2973 2.808 16.592C2.808 12.3613 4.18533 8.872 6.94 6.124C9.696 3.37467 13.0493 2 17 2C20.9507 2 24.304 3.37467 27.06 6.124C29.8147 8.872 31.192 12.3613 31.192 16.592C31.192 18.2973 30.8107 20.0393 30.048 21.818C29.2853 23.5953 28.3133 25.35 27.132 27.082C25.952 28.8153 24.6313 30.478 23.17 32.07C21.7087 33.662 20.2653 35.112 18.84 36.42C18.5853 36.6507 18.296 36.824 17.972 36.94C17.6467 37.0547 17.322 37.112 16.998 37.112M17.006 19.462C17.8953 19.462 18.6553 19.1447 19.286 18.51C19.9153 17.8767 20.23 17.1147 20.23 16.224C20.23 15.3333 19.9127 14.5733 19.278 13.944C18.6433 13.3147 17.8813 13 16.992 13C16.1027 13 15.3427 13.3173 14.712 13.952C14.0813 14.5867 13.7667 15.3487 13.768 16.238C13.7693 17.1273 14.086 17.8873 14.718 18.518C15.35 19.1487 16.1127 19.4633 17.006 19.462Z" fill="#1B2631"/>
<path d="M15.196 36.458L13.8424 37.9303L13.8592 37.9457L13.8763 37.9608L15.196 36.458ZM10.868 32.088L9.38956 33.4349L9.38962 33.435L10.868 32.088ZM2.808 16.592L4.808 16.5951V16.592H2.808ZM6.94 6.124L8.3525 7.53993L8.3525 7.53992L6.94 6.124ZM27.06 6.124L25.6475 7.53992L25.6475 7.53993L27.06 6.124ZM30.048 21.818L31.8859 22.6067L31.8861 22.6062L30.048 21.818ZM27.132 27.082L25.4797 25.955L25.4787 25.9565L27.132 27.082ZM18.84 36.42L20.1827 37.9024L20.1923 37.8936L18.84 36.42ZM17.972 36.94L18.6368 38.8263L18.6461 38.823L17.972 36.94ZM17.006 19.462V17.462L17.003 17.462L17.006 19.462ZM19.286 18.51L20.7047 19.9197L20.7047 19.9197L19.286 18.51ZM17 37.112V35.112C16.909 35.112 16.8056 35.0977 16.6827 35.0574L16.06 36.958L15.4373 38.8586C15.941 39.0236 16.4643 39.112 17 39.112V37.112ZM16.06 36.958L16.6827 35.0574C16.6415 35.0439 16.5877 35.0185 16.5157 34.9552L15.196 36.458L13.8763 37.9608C14.3296 38.3589 14.8519 38.6668 15.4373 38.8586L16.06 36.958ZM15.196 36.458L16.5496 34.9857C15.1753 33.7221 13.7741 32.308 12.3464 30.741L10.868 32.088L9.38962 33.435C10.8872 35.0787 12.3714 36.5779 13.8424 37.9303L15.196 36.458ZM10.868 32.088L12.3464 30.7411C10.9426 29.2002 9.67154 27.6073 8.53183 25.9628L6.888 27.102L5.24416 28.2412C6.48845 30.0367 7.87075 31.7678 9.38956 33.4349L10.868 32.088ZM6.888 27.102L8.53183 25.9628C7.41098 24.3454 6.49962 22.7078 5.79107 21.05L3.952 21.836L2.11293 22.622C2.93504 24.5455 3.98101 26.4185 5.24416 28.2412L6.888 27.102ZM3.952 21.836L5.79107 21.05C5.11728 19.4735 4.80581 17.9934 4.80799 16.5951L2.808 16.592L0.808 16.5889C0.804853 18.6013 1.25605 20.6172 2.11293 22.622L3.952 21.836ZM2.808 16.592H4.808C4.808 12.8415 6.00868 9.87807 8.3525 7.53993L6.94 6.124L5.5275 4.70807C2.36199 7.86592 0.807997 11.8812 0.807997 16.592H2.808ZM6.94 6.124L8.3525 7.53992C10.7274 5.1708 13.5701 4 17 4V2V0C12.5286 0 8.66463 1.57853 5.5275 4.70807L6.94 6.124ZM17 2V4C20.4299 4 23.2726 5.1708 25.6475 7.53992L27.06 6.124L28.4725 4.70807C25.3354 1.57853 21.4714 0 17 0V2ZM27.06 6.124L25.6475 7.53993C27.9913 9.87807 29.192 12.8415 29.192 16.592H31.192H33.192C33.192 11.8812 31.638 7.86592 28.4725 4.70807L27.06 6.124ZM31.192 16.592H29.192C29.192 17.9922 28.8801 19.4667 28.2099 21.0298L30.048 21.818L31.8861 22.6062C32.7412 20.6119 33.192 18.6025 33.192 16.592H31.192ZM30.048 21.818L28.2101 21.0293C27.5023 22.6788 26.5944 24.3207 25.4797 25.955L27.132 27.082L28.7843 28.2089C30.0322 26.3793 31.0684 24.5119 31.8859 22.6067L30.048 21.818ZM27.132 27.082L25.4787 25.9565C24.3548 27.6075 23.0946 29.1946 21.6966 30.7175L23.17 32.07L24.6434 33.4225C26.1681 31.7614 27.5492 30.0231 28.7853 28.2075L27.132 27.082ZM23.17 32.07L21.6966 30.7175C20.2695 32.2722 18.8665 33.6812 17.4877 34.9464L18.84 36.42L20.1923 37.8936C21.6642 36.5428 23.1478 35.0517 24.6434 33.4225L23.17 32.07ZM18.84 36.42L17.4974 34.9377C17.4374 34.992 17.3753 35.0293 17.2979 35.057L17.972 36.94L18.6461 38.823C19.2167 38.6187 19.7333 38.3094 20.1826 37.9023L18.84 36.42ZM17.972 36.94L17.3072 35.0537C17.1815 35.098 17.0813 35.112 16.998 35.112V37.112V39.112C17.5627 39.112 18.1118 39.0113 18.6368 38.8263L17.972 36.94ZM17.006 19.462V21.462C18.4316 21.462 19.7011 20.9296 20.7047 19.9197L19.286 18.51L17.8673 17.1003C17.6095 17.3597 17.3591 17.462 17.006 17.462V19.462ZM19.286 18.51L20.7047 19.9197C21.7053 18.9127 22.23 17.6444 22.23 16.224H20.23H18.23C18.23 16.585 18.1253 16.8406 17.8673 17.1003L19.286 18.51ZM20.23 16.224H22.23C22.23 14.7979 21.6981 13.5272 20.6862 12.5238L19.278 13.944L17.8698 15.3642C18.1272 15.6194 18.23 15.8688 18.23 16.224H20.23ZM19.278 13.944L20.6862 12.5238C19.6791 11.5252 18.4118 11 16.992 11V13V15C17.3509 15 17.6076 15.1042 17.8698 15.3642L19.278 13.944ZM16.992 13V11C15.5664 11 14.2969 11.5324 13.2933 12.5423L14.712 13.952L16.1307 15.3617C16.3885 15.1023 16.6389 15 16.992 15V13ZM14.712 13.952L13.2933 12.5423C12.2921 13.5498 11.7659 14.8188 11.768 16.241L13.768 16.238L15.768 16.235C15.7675 15.8785 15.8705 15.6235 16.1307 15.3617L14.712 13.952ZM13.768 16.238L11.768 16.241C11.7701 17.6628 12.2997 18.9302 13.3053 19.9337L14.718 18.518L16.1307 17.1023C15.8723 16.8444 15.7685 16.5919 15.768 16.235L13.768 16.238ZM14.718 18.518L13.3053 19.9337C14.3132 20.9395 15.5852 21.4641 17.009 21.462L17.006 19.462L17.003 17.462C16.6401 17.4625 16.3868 17.3578 16.1307 17.1023L14.718 18.518Z" fill="white" mask="url(#path-1-outside-1_17232_158)"/>
</svg>
