<svg width="42" height="42" viewBox="0 0 42 42" fill="none" xmlns="http://www.w3.org/2000/svg">
<g clip-path="url(#clip0_17240_1656)">
<path d="M40.8992 9.80003C40.7147 9.73003 40.5047 9.77458 40.371 9.92094L24.3092 27.5355C24.1819 27.6755 24.1501 27.8791 24.2265 28.0509C24.3029 28.2228 24.4747 28.3373 24.6656 28.3373H40.7274C40.9883 28.3373 41.2047 28.1209 41.2047 27.86V10.2455C41.2047 10.0482 41.0838 9.87003 40.8992 9.80003ZM40.2501 27.3828H25.741L40.2501 11.4737V27.3828Z" fill="#6AC1EF"/>
<path d="M31.2647 24.9455C31.3411 25.1173 31.5129 25.2319 31.7038 25.2319H37.6283C37.8893 25.2319 38.1056 25.0155 38.1056 24.7546V18.2637C38.1056 18.0664 37.9847 17.8882 37.8002 17.8182C37.6156 17.7482 37.4056 17.7928 37.272 17.9391L31.3474 24.43C31.2202 24.57 31.182 24.7737 31.2647 24.9455ZM37.1447 19.4919V24.2773H32.7793L37.1447 19.4919Z" fill="#6AC1EF"/>
<path d="M38.6657 33.7528H3.33476C3.07385 33.7528 2.85748 33.9692 2.85748 34.2301V40.5874C2.85748 40.8483 3.07385 41.0646 3.33476 41.0646H38.6593C38.9202 41.0646 39.1366 40.8483 39.1366 40.5874V34.2301C39.1429 33.9692 38.9266 33.7528 38.6657 33.7528ZM38.1884 40.1101H3.81203V34.7074H6.66294V36.0501C6.66294 36.311 6.8793 36.5274 7.14021 36.5274C7.40112 36.5274 7.61748 36.311 7.61748 36.0501V34.7074H9.74294V36.0501C9.74294 36.311 9.9593 36.5274 10.2202 36.5274C10.4811 36.5274 10.6975 36.311 10.6975 36.0501V34.7074H12.8229V36.0501C12.8229 36.311 13.0393 36.5274 13.3002 36.5274C13.5611 36.5274 13.7775 36.311 13.7775 36.0501V34.7074H15.9029V36.0501C15.9029 36.311 16.1193 36.5274 16.3802 36.5274C16.6411 36.5274 16.8575 36.311 16.8575 36.0501V34.7074H18.9829V36.0501C18.9829 36.311 19.1993 36.5274 19.4602 36.5274C19.7211 36.5274 19.9375 36.311 19.9375 36.0501V34.7074H22.0629V36.0501C22.0629 36.311 22.2793 36.5274 22.5402 36.5274C22.8011 36.5274 23.0175 36.311 23.0175 36.0501V34.7074H25.1429V36.0501C25.1429 36.311 25.3593 36.5274 25.6202 36.5274C25.8811 36.5274 26.0975 36.311 26.0975 36.0501V34.7074H28.2229V36.0501C28.2229 36.311 28.4393 36.5274 28.7002 36.5274C28.9611 36.5274 29.1775 36.311 29.1775 36.0501V34.7074H31.3029V36.0501C31.3029 36.311 31.5193 36.5274 31.7802 36.5274C32.0411 36.5274 32.2575 36.311 32.2575 36.0501V34.7074H34.3829V36.0501C34.3829 36.311 34.5993 36.5274 34.8602 36.5274C35.1211 36.5274 35.3375 36.311 35.3375 36.0501V34.7074H38.1884V40.1101Z" fill="#6AC1EF"/>
<path d="M12.7974 24.4174H24.9392C25.2001 24.4174 25.4165 24.201 25.4165 23.9401V15.9665H26.3392C26.5301 15.9665 26.7083 15.8519 26.7783 15.6737C26.8483 15.4956 26.8101 15.2919 26.6765 15.1519L19.2056 7.68102C19.1165 7.59192 18.9956 7.54102 18.8683 7.54102C18.741 7.54102 18.6201 7.59192 18.531 7.68102L11.0665 15.1519C10.9329 15.2856 10.8883 15.4956 10.9647 15.6737C11.041 15.8519 11.2129 15.9665 11.4038 15.9665H12.3265V23.9401C12.3201 24.201 12.5365 24.4174 12.7974 24.4174ZM17.3219 23.4628V19.3519H20.4147V23.4628H17.3219ZM24.4619 23.4628H21.3692V18.8747C21.3692 18.6137 21.1529 18.3974 20.8919 18.3974H16.8447C16.5838 18.3974 16.3674 18.6137 16.3674 18.8747V23.4628H13.2747V15.9665H24.4619V23.4628ZM18.8683 8.69283L25.1874 15.0119H24.9392H12.7974H12.5492L18.8683 8.69283Z" fill="#6AC1EF"/>
<path d="M10.7674 6.58638H34.122V14.1337C34.122 14.3946 34.3383 14.6109 34.5993 14.6109C34.8602 14.6109 35.0765 14.3946 35.0765 14.1337V6.10911C35.0765 5.8482 34.8602 5.63184 34.5993 5.63184H10.7674C10.5065 5.63184 10.2902 5.8482 10.2902 6.10911C10.2902 6.37002 10.5002 6.58638 10.7674 6.58638Z" fill="#6AC1EF"/>
<path d="M34.593 32.1556C34.8539 32.1556 35.0703 31.9392 35.0703 31.6783V29.7692C35.0703 29.5083 34.8539 29.2919 34.593 29.2919C34.3321 29.2919 34.1157 29.5083 34.1157 29.7692V31.201H4.97026C3.19481 31.201 1.75026 29.7565 1.75026 27.981C1.75026 26.1546 3.23935 24.6655 5.06572 24.6655C6.89208 24.6655 8.38117 26.1546 8.38117 27.981C8.38117 28.2419 8.59754 28.4583 8.85845 28.4583C9.11935 28.4583 9.33572 28.2419 9.33572 27.981V5.20555C9.33572 2.851 7.42026 0.935547 5.06572 0.935547C2.71117 0.935547 0.795715 2.851 0.795715 5.20555V27.981C0.795715 30.2846 2.66663 32.1556 4.97026 32.1556H34.593ZM1.75026 5.20555C1.75026 3.37918 3.23935 1.89009 5.06572 1.89009C6.89208 1.89009 8.38117 3.37918 8.38117 5.20555V25.2892C7.59844 24.3219 6.40208 23.7046 5.06572 23.7046C3.72935 23.7046 2.53299 24.3219 1.75026 25.2892V5.20555Z" fill="#6AC1EF"/>
</g>
<defs>
<clipPath id="clip0_17240_1656">
<rect width="42" height="42" fill="white"/>
</clipPath>
</defs>
</svg>
