<svg width="42" height="42" viewBox="0 0 42 42" fill="none" xmlns="http://www.w3.org/2000/svg">
<path d="M36.7627 37.2844H5.23728C4.97637 37.2844 4.76001 37.5008 4.76001 37.7617V40.7272C4.76001 40.9881 4.97637 41.2044 5.23728 41.2044H36.7564C37.0173 41.2044 37.2336 40.9881 37.2336 40.7272V37.7617C37.24 37.5008 37.0236 37.2844 36.7627 37.2844ZM36.2855 40.2499H5.71455V38.239H36.2791V40.2499H36.2855Z" fill="#6AC1EF"/>
<path d="M8.61637 36.33C8.87728 36.33 9.09364 36.1136 9.09364 35.8527V14.8081L10.9709 16.6854V34.9236C10.9709 35.1845 11.1873 35.4009 11.4482 35.4009H30.5518C30.8127 35.4009 31.0291 35.1845 31.0291 34.9236V16.6918L32.9064 14.8145V35.8591C32.9064 36.12 33.1227 36.3363 33.3836 36.3363C33.6446 36.3363 33.8609 36.12 33.8609 35.8591V13.6563C33.8609 6.56087 28.0891 0.79541 21 0.79541C13.9109 0.79541 8.1391 6.56723 8.1391 13.6563V35.8527C8.1391 36.1136 8.3491 36.33 8.61637 36.33ZM32.2318 14.1336L30.3546 16.0109H11.6455L9.76819 14.1336H32.2318ZM17.3727 23.7809V27.6436L11.9318 28.2481V23.17L17.3727 23.7809ZM17.3727 28.6045V32.4482L11.9318 34.2682V29.2091L17.3727 28.6045ZM17.3727 22.82L11.9318 22.2154V17.1627L17.3727 18.9827V22.82ZM17.9964 33.2436C18.1936 33.18 18.3209 32.9954 18.3209 32.7918V18.6327C18.3209 18.4291 18.1873 18.2445 17.9964 18.1809L14.3755 16.9718H27.6118L23.9909 18.1809C23.7936 18.2445 23.6664 18.4291 23.6664 18.6327V32.7918C23.6664 32.9954 23.8 33.18 23.9909 33.2436L27.6118 34.4527H14.3818L17.9964 33.2436ZM24.6273 27.6436V23.7809L30.0682 23.1763V28.2545L24.6273 27.6436ZM24.6273 22.82V18.9763L30.0682 17.1563V22.2091L24.6273 22.82ZM30.0745 34.2618L24.6336 32.4418V28.5981L30.0745 29.2027V34.2618ZM32.9 13.1791H21.4773V1.77541C27.6627 2.02359 32.6518 6.99359 32.9 13.1791ZM20.5227 1.77541V13.1854H9.10001C9.34819 6.99359 14.3373 2.02359 20.5227 1.77541Z" fill="#6AC1EF"/>
</svg>
