<svg width="42" height="42" viewBox="0 0 42 42" fill="none" xmlns="http://www.w3.org/2000/svg">
<path d="M21.8019 25.9637H27.51C27.7709 25.9637 27.9873 25.7473 27.9873 25.4864V22.9155C27.9873 22.6546 27.7709 22.4382 27.51 22.4382H21.8019C21.5409 22.4382 21.3246 22.6546 21.3246 22.9155V25.4864C21.3246 25.7473 21.5409 25.9637 21.8019 25.9637ZM22.2791 23.3928H27.0328V25.0091H22.2791V23.3928Z" fill="#6AC1EF"/>
<path d="M21.8019 31.1309H27.51C27.7709 31.1309 27.9873 30.9146 27.9873 30.6536V28.0827C27.9873 27.8218 27.7709 27.6055 27.51 27.6055H21.8019C21.5409 27.6055 21.3246 27.8218 21.3246 28.0827V30.6536C21.3246 30.9146 21.5409 31.1309 21.8019 31.1309ZM22.2791 28.56H27.0328V30.1764H22.2791V28.56Z" fill="#6AC1EF"/>
<path d="M40.7273 10.0609H38.1246V8.03727C38.1246 7.77636 37.9082 7.56 37.6473 7.56H34.02V2.37364C34.02 2.11273 33.8037 1.89636 33.5427 1.89636C33.2818 1.89636 33.0655 2.11273 33.0655 2.37364V7.55363H29.4382C29.1773 7.55363 28.9609 7.77 28.9609 8.03091V10.0545H26.3582C26.0973 10.0545 25.8809 10.2709 25.8809 10.5318V19.7336H19.1037C18.8427 19.7336 18.6264 19.95 18.6264 20.2109V32.1745C17.6718 30.8191 16.1 29.9218 14.3182 29.9218H13.37L12.8673 28.6236C13.6818 27.8982 14.3564 26.9118 14.8527 25.9127L14.91 25.9318C15.3364 26.0591 15.82 25.9064 16.2209 25.5182C16.5646 25.1936 16.8318 24.7164 16.9846 24.1818C17.3091 23.0491 17.01 21.9991 16.31 21.6682C16.3037 21.5345 16.2909 21.4073 16.2655 21.2864C16.4437 20.7773 16.9846 18.9764 16.2909 17.6273C15.9727 17.0164 15.4509 16.5964 14.7446 16.3545C14.6237 15.8964 14.2864 15.0118 13.37 14.3182C12.1991 13.4336 10.5191 13.16 8.3682 13.51C4.21911 14.1845 3.5382 18.2573 3.79274 20.5609C3.8182 20.8473 3.8882 21.2864 4.02184 21.7C3.69729 21.8718 3.44911 22.2027 3.33456 22.6482C3.22002 23.1064 3.23911 23.6536 3.39184 24.1882C3.54456 24.7227 3.8182 25.2 4.15547 25.5245C4.55638 25.9127 5.03365 26.0591 5.46638 25.9382C5.48547 25.9318 5.50456 25.9255 5.52365 25.9191C6.02002 26.9182 6.69456 27.9045 7.50911 28.63L7.00638 29.9282H6.0582C3.15638 29.9282 0.795471 32.2891 0.795471 35.1909V39.62C0.795471 39.8809 1.01183 40.0973 1.27274 40.0973H40.7273C40.9882 40.0973 41.2046 39.8809 41.2046 39.62V10.5382C41.2046 10.2709 40.9882 10.0609 40.7273 10.0609ZM29.9218 8.50818H37.17V10.0545H29.9218V8.50818ZM15.4382 18.0664C16.0427 19.2309 15.33 21.0636 15.3237 21.0764C15.2918 21.1655 15.2791 21.2609 15.2982 21.3564C15.3046 21.4009 15.3173 21.4455 15.3237 21.49C15.2409 21.4136 15.1455 21.3055 15.0309 21.1782C14.0382 20.0327 14.3818 18.2255 14.6237 17.3727C14.63 17.36 14.6364 17.3409 14.6427 17.3282C15.0055 17.4936 15.2664 17.7355 15.4382 18.0664ZM5.01456 17.5318C5.57456 15.7755 6.75184 14.7445 8.52093 14.4582C9.07456 14.3691 9.59002 14.3245 10.0673 14.3245C11.1937 14.3245 12.1037 14.5791 12.7718 15.0755C13.5546 15.6609 13.7837 16.4182 13.8346 16.6791C13.8027 16.7618 13.7646 16.8891 13.72 17.0418C13.6246 17.2455 13.4591 17.4682 13.1791 17.5955C11.7982 18.2191 9.1382 18.3782 7.25456 17.5318C7.23547 17.5191 7.21002 17.5127 7.19093 17.5064C6.9682 17.4427 6.59275 17.4555 6.2682 17.7036C5.83547 18.0345 5.61911 18.6773 5.62547 19.6191C5.63184 20.1091 5.56184 20.5609 5.41547 20.9745C5.27547 21.3882 5.12911 21.5918 5.02729 21.6809C4.76002 21.1591 4.45456 19.2945 5.01456 17.5318ZM6.15365 25.0027C6.08365 24.8436 5.93729 24.7355 5.76547 24.7164C5.59365 24.6973 5.4282 24.7736 5.32638 24.9136C5.30093 24.9455 5.25638 25.0027 5.21184 25.0155C5.11638 25.0409 4.97002 24.9709 4.82365 24.8309C4.60729 24.6209 4.42274 24.29 4.31456 23.9209C4.20638 23.5518 4.18729 23.17 4.26365 22.8773C4.31456 22.68 4.40365 22.54 4.49274 22.5145H4.49911C4.62638 22.6227 4.76638 22.6991 4.9382 22.6991H4.97638C5.55547 22.6673 6.00729 22.19 6.31911 21.2927C6.49729 20.7773 6.58638 20.2173 6.58002 19.6191C6.57365 18.7727 6.77729 18.5309 6.84093 18.48C6.87911 18.4482 6.91093 18.4418 6.93002 18.4355C9.02365 19.3455 11.83 19.1927 13.44 18.5245C13.3446 19.5682 13.4718 20.8345 14.3118 21.8082C14.7255 22.2855 15.1582 22.7055 15.5973 22.7055C15.6991 22.7055 15.8009 22.68 15.8964 22.6355C15.9218 22.6227 15.9409 22.6036 15.9664 22.5845C16.1255 22.7564 16.2527 23.2655 16.0618 23.9273C15.9537 24.2964 15.7691 24.6336 15.5527 24.8373C15.4064 24.9773 15.26 25.0473 15.1646 25.0218C15.12 25.0091 15.0755 24.9518 15.05 24.92C14.9482 24.78 14.7891 24.6973 14.6109 24.7164C14.4391 24.7355 14.2927 24.8436 14.2227 25.0027C13.4655 26.7655 11.9509 28.8209 10.1882 28.8209C8.42547 28.8209 6.91093 26.7655 6.15365 25.0027ZM10.1882 29.7755C10.8627 29.7755 11.4927 29.5655 12.0655 29.2155L12.7273 30.9209C12.74 30.9591 12.7337 31.0036 12.7018 31.0355C11.2446 32.2827 9.13184 32.2764 7.67456 31.0355C7.64275 31.01 7.63002 30.9591 7.64911 30.9209L8.31093 29.2218C8.88365 29.5655 9.51365 29.7755 10.1882 29.7755ZM1.75002 35.1909C1.75002 32.8173 3.68456 30.8827 6.0582 30.8827H6.6882C6.66274 31.2073 6.79638 31.5382 7.05093 31.7609C7.96093 32.5373 9.0682 32.9255 10.1818 32.9255C11.2955 32.9255 12.4091 32.5373 13.3127 31.7609C13.5737 31.5382 13.7009 31.2136 13.6755 30.8827H14.3055C16.6791 30.8827 18.6137 32.8173 18.6137 35.1909V39.1427H15.3809V36.3555C15.3809 36.0945 15.1646 35.8782 14.9037 35.8782C14.6427 35.8782 14.4264 36.0945 14.4264 36.3555V39.1427H5.93729V36.3555C5.93729 36.0945 5.72093 35.8782 5.46002 35.8782C5.19911 35.8782 4.98274 36.0945 4.98274 36.3555V39.1427H1.75002V35.1909ZM19.5809 35.1909V20.6945H26.3709H29.7373V39.1491H28.0573V34.6118C28.0573 34.3509 27.8409 34.1345 27.58 34.1345H24.6591H21.7382C21.4773 34.1345 21.2609 34.3509 21.2609 34.6118V39.1491H19.5809V35.1909ZM22.2155 39.1491V35.0891H24.1818V39.1491H22.2155ZM27.1027 35.0891V39.1491H25.1364V35.0891H27.1027ZM40.25 39.1491H30.6918V20.2173C30.6918 19.9564 30.4755 19.74 30.2146 19.74H26.8482V11.0155H40.2564V39.1491H40.25Z" fill="#6AC1EF"/>
<path d="M32.1109 13.3318H28.7319C28.4709 13.3318 28.2546 13.5482 28.2546 13.8091V17.1818C28.2546 17.4427 28.4709 17.6591 28.7319 17.6591H32.1109C32.3718 17.6591 32.5882 17.4427 32.5882 17.1818V13.8091C32.5882 13.5418 32.3718 13.3318 32.1109 13.3318ZM31.6337 16.7045H29.2091V14.28H31.6337V16.7045Z" fill="#6AC1EF"/>
<path d="M34.51 13.8091V17.1818C34.51 17.4427 34.7264 17.6591 34.9873 17.6591H38.3664C38.6273 17.6591 38.8436 17.4427 38.8436 17.1818V13.8091C38.8436 13.5482 38.6273 13.3318 38.3664 13.3318H34.9873C34.72 13.3318 34.51 13.5418 34.51 13.8091ZM35.4646 14.2863H37.8891V16.7109H35.4646V14.2863Z" fill="#6AC1EF"/>
<path d="M38.3664 19.7209H34.9873C34.7264 19.7209 34.51 19.9373 34.51 20.1982V23.5773C34.51 23.8382 34.7264 24.0546 34.9873 24.0546H38.3664C38.6273 24.0546 38.8436 23.8382 38.8436 23.5773V20.1982C38.8436 19.9309 38.6273 19.7209 38.3664 19.7209ZM37.8891 23.0937H35.4646V20.6691H37.8891V23.0937Z" fill="#6AC1EF"/>
<path d="M38.3664 26.11H34.9873C34.7264 26.11 34.51 26.3263 34.51 26.5873V29.9663C34.51 30.2273 34.7264 30.4436 34.9873 30.4436H38.3664C38.6273 30.4436 38.8436 30.2273 38.8436 29.9663V26.5873C38.8436 26.32 38.6273 26.11 38.3664 26.11ZM37.8891 29.4891H35.4646V27.0645H37.8891V29.4891Z" fill="#6AC1EF"/>
<path d="M38.3664 32.4991H34.9873C34.7264 32.4991 34.51 32.7155 34.51 32.9764V36.3555C34.51 36.6164 34.7264 36.8328 34.9873 36.8328H38.3664C38.6273 36.8328 38.8436 36.6164 38.8436 36.3555V32.9764C38.8436 32.7155 38.6273 32.4991 38.3664 32.4991ZM37.8891 35.8782H35.4646V33.4537H37.8891V35.8782Z" fill="#6AC1EF"/>
<path d="M8.63548 23.2718C9.01094 23.2718 9.31003 22.9664 9.31003 22.5973C9.31003 22.2282 9.00457 21.9227 8.63548 21.9227C8.26003 21.9227 7.96094 22.2282 7.96094 22.5973C7.96094 22.9664 8.26639 23.2718 8.63548 23.2718Z" fill="#6AC1EF"/>
<path d="M11.741 23.2718C12.1164 23.2718 12.4155 22.9664 12.4155 22.5973C12.4155 22.2282 12.11 21.9227 11.741 21.9227C11.3655 21.9227 11.0664 22.2282 11.0664 22.5973C11.0664 22.9664 11.3655 23.2718 11.741 23.2718Z" fill="#6AC1EF"/>
<path d="M8.67363 25.3464C8.48908 25.531 8.48908 25.8364 8.67363 26.021C9.09363 26.441 9.6409 26.6446 10.1882 26.6446C10.7354 26.6446 11.2827 26.4346 11.7027 26.021C11.8873 25.8364 11.8873 25.531 11.7027 25.3464C11.5182 25.1619 11.2127 25.1619 11.0282 25.3464C10.5636 25.811 9.81272 25.8046 9.35454 25.3464C9.16363 25.1619 8.86454 25.1619 8.67363 25.3464Z" fill="#6AC1EF"/>
</svg>
