<svg width="42" height="42" viewBox="0 0 42 42" fill="none" xmlns="http://www.w3.org/2000/svg">
<path d="M11.4737 32.27C11.4737 30.45 9.99094 28.9673 8.17094 28.9673C6.35094 28.9673 4.87457 30.45 4.87457 32.27C4.87457 34.09 6.35094 35.5664 8.17094 35.5664C9.99094 35.5664 11.4737 34.09 11.4737 32.27ZM8.17094 34.6118C6.87912 34.6118 5.82912 33.5618 5.82912 32.27C5.82912 30.9782 6.87912 29.9218 8.17094 29.9218C9.46275 29.9218 10.5191 30.9782 10.5191 32.27C10.5191 33.5618 9.46912 34.6118 8.17094 34.6118Z" fill="#6AC1EF"/>
<path d="M39.8237 31.5954C39.2127 30.9845 38.4746 30.5709 37.6664 30.3609C37.8446 30.0872 37.9527 29.7563 37.9527 29.4063V21.8972C37.9527 20.93 37.17 20.1472 36.2027 20.1472H26.4664C25.4991 20.1472 24.7164 20.93 24.7164 21.8972V29.4C24.7164 29.6927 24.7927 29.96 24.92 30.2018H23.9146V27.3636C23.9146 27.1027 23.6982 26.8863 23.4373 26.8863H22.3746V10.8054C22.3746 10.8054 22.3809 10.8054 22.3809 10.7991L26.4409 12.9436C26.2373 13.51 26.46 14.1591 27.0009 14.4772L29.0564 15.6609L31.08 18.7091C31.1691 18.8427 31.3218 18.9191 31.4809 18.9191C31.5127 18.9191 31.5446 18.9191 31.5764 18.9063L36.0818 17.9836C36.2855 17.9454 36.4382 17.7736 36.4573 17.57L36.6164 16.1509C36.6291 16.0172 36.5909 15.8772 36.4955 15.7754C36.4 15.6736 36.2536 15.61 36.1327 15.6163L32.9446 15.6672L31.08 13.3509L32.1046 11.5881L35.0573 12.0909L36.5973 14.9163C36.6609 15.0372 36.7755 15.1263 36.9091 15.1518C36.9409 15.1581 36.9791 15.1645 37.0173 15.1645C37.1191 15.1645 37.2146 15.1327 37.2973 15.0754L38.4618 14.2291C38.6273 14.1081 38.6973 13.8918 38.6336 13.6945L37.2018 9.27814C37.1446 9.0936 36.9791 8.96633 36.7818 8.94724L33.1164 8.67996L31.0546 7.48996C30.45 7.13996 29.6736 7.3436 29.3173 7.94814L24.3091 5.23087C23.6473 3.54451 22.0055 2.34814 20.09 2.34814C17.5891 2.34814 15.5527 4.38451 15.5527 6.89178C15.5527 8.55905 16.4627 10.0163 17.8055 10.8054V26.8863H16.7427C16.4818 26.8863 16.2655 27.1027 16.2655 27.3636V30.6727C16.2655 30.9336 16.4818 31.15 16.7427 31.15L36.4827 31.1563C37.4818 31.1563 38.43 31.5509 39.1427 32.2636C39.8491 32.9636 40.2436 33.9118 40.2436 34.9236C40.2436 36.9981 38.5573 38.6909 36.4827 38.6909H9.98455L10.0545 38.22C10.3982 38.1118 10.7291 37.9718 11.0536 37.8063L11.8745 38.4172C12.0655 38.5572 12.3327 38.5381 12.4982 38.3727L14.2864 36.5845C14.4518 36.4191 14.4709 36.1518 14.3309 35.9609L13.72 35.14C13.8855 34.8281 14.0191 34.4909 14.1336 34.1409L15.1455 33.9945C15.3809 33.9627 15.5527 33.7591 15.5527 33.5236V30.9972C15.5527 30.7618 15.3809 30.5581 15.1455 30.5263L14.1336 30.38C14.0255 30.03 13.8855 29.6991 13.72 29.3809L14.3309 28.56C14.4709 28.3691 14.4518 28.1018 14.2864 27.9363L12.4982 26.1481C12.3327 25.9827 12.0655 25.9636 11.8745 26.1036L11.0536 26.7145C10.7355 26.5491 10.4045 26.4091 10.0545 26.3009L9.90819 25.2891C9.87637 25.0536 9.67273 24.8818 9.43728 24.8818H6.91091C6.67546 24.8818 6.47182 25.0536 6.44 25.2891L6.29364 26.3009C5.94364 26.4091 5.61273 26.5491 5.29455 26.7145L4.47364 26.1036C4.28273 25.9636 4.01546 25.9827 3.85 26.1481L2.06182 27.9363C1.89636 28.1018 1.87727 28.3691 2.01727 28.56L2.62818 29.3809C2.46273 29.7054 2.32273 30.0363 2.21455 30.38L1.20909 30.5327C0.973637 30.5645 0.801819 30.7681 0.801819 31.0036V33.53C0.801819 33.7654 0.973637 33.9691 1.20909 34.0009L2.22091 34.1472C2.32909 34.4909 2.46909 34.8218 2.63455 35.1463L2.02364 35.9672C1.88364 36.1581 1.90273 36.4254 2.06818 36.5909L3.85637 38.3791C4.02182 38.5445 4.28909 38.5636 4.48 38.4236L5.30091 37.8127C5.61909 37.9781 5.95637 38.1181 6.3 38.2263L6.44637 39.2381C6.47818 39.4736 6.68182 39.6454 6.91727 39.6454H36.4955C39.0982 39.6454 41.2109 37.5263 41.2109 34.9236C41.2046 33.6572 40.7146 32.4736 39.8237 31.5954ZM32.3527 16.4627C32.4482 16.5772 32.5946 16.6536 32.7346 16.6409L35.6109 16.5963L35.5473 17.1309L31.6973 17.92L29.9727 15.3236L30.5836 14.2609L32.3527 16.4627ZM32.6264 10.7163L33.25 9.64723L36.3936 9.87633L37.6218 13.6563L37.1764 13.9809L35.7827 11.4291C35.7127 11.3018 35.5855 11.2127 35.4391 11.1872L32.6264 10.7163ZM30.1382 8.43178C30.1955 8.32996 30.3036 8.27269 30.4182 8.27269C30.4691 8.27269 30.5264 8.28542 30.5773 8.31723L32.3273 9.32905L29.2346 14.6681L27.4846 13.6563C27.3318 13.5672 27.2809 13.37 27.37 13.2172L30.1382 8.43178ZM28.84 8.77542L26.9055 12.1163L23.2273 10.1691C24.0927 9.34178 24.6336 8.1836 24.6336 6.89178C24.6336 6.75178 24.6273 6.61178 24.6146 6.47814L28.84 8.77542ZM16.5136 6.89178C16.5136 4.91269 18.1173 3.30269 20.0964 3.30269C22.0755 3.30269 23.6791 4.91269 23.6791 6.89178C23.6791 8.86451 22.0755 10.4745 20.0964 10.4745C18.1173 10.4745 16.5136 8.86451 16.5136 6.89178ZM20.0964 11.4291C20.5546 11.4291 21 11.3591 21.42 11.2318V26.8863H18.7664V11.2318C19.1864 11.3591 19.6318 11.4291 20.0964 11.4291ZM22.96 30.1954H17.2264V27.8409H18.2891H21.8973H22.96V30.1954ZM29.9282 21.1018H32.7409V22.6672L31.4873 22.2409C31.4364 22.2218 31.3855 22.2154 31.3346 22.2154C31.2836 22.2154 31.2327 22.2218 31.1818 22.2409L29.9282 22.6672V21.1018ZM36.9982 29.4C36.9982 29.8391 36.6418 30.1954 36.2027 30.1954H26.4664C26.0273 30.1954 25.6709 29.8391 25.6709 29.4V21.8972C25.6709 21.4581 26.0273 21.1018 26.4664 21.1018H28.9736V23.3354C28.9736 23.4881 29.05 23.6345 29.1709 23.7236C29.2918 23.8127 29.4573 23.8381 29.6036 23.7872L31.3346 23.2018L33.0655 23.7872C33.1164 23.8063 33.1673 23.8127 33.2182 23.8127C33.32 23.8127 33.4155 23.7809 33.4982 23.7236C33.6255 23.6345 33.6955 23.4881 33.6955 23.3354V21.1018H36.2027C36.6418 21.1018 36.9982 21.4581 36.9982 21.8972V29.4ZM7.19728 37.7809C7.17182 37.59 7.03182 37.4372 6.84727 37.3863C6.37637 37.2654 5.91818 37.0745 5.49818 36.8327C5.33273 36.7372 5.12273 36.75 4.97 36.8645L4.23182 37.4181L3.02909 36.2091L3.57636 35.4709C3.69091 35.3181 3.70364 35.1081 3.60818 34.9427C3.36636 34.5227 3.18182 34.0709 3.05455 33.6C3.00364 33.4154 2.85091 33.2754 2.66 33.25L1.75 33.1227V31.4236L2.66 31.2963C2.85091 31.2709 3.00364 31.1309 3.05455 30.9463C3.17546 30.4818 3.36636 30.0236 3.61455 29.6036C3.71 29.4381 3.69727 29.2281 3.58273 29.0754L3.03546 28.3372L4.23818 27.1345L4.97637 27.6881C5.12909 27.8027 5.33909 27.8154 5.50455 27.7136C5.90546 27.4718 6.35728 27.2872 6.84727 27.16C7.03182 27.1091 7.17182 26.9563 7.19728 26.7654L7.32455 25.8554H9.02364L9.15091 26.7654C9.17637 26.9563 9.31637 27.1091 9.50091 27.16C9.98455 27.2872 10.4364 27.4718 10.8436 27.7136C11.0091 27.8091 11.2191 27.8027 11.3718 27.6881L12.11 27.1345L13.3127 28.3372L12.7655 29.0754C12.6509 29.2281 12.6382 29.4381 12.74 29.6036C12.9818 30.0109 13.1664 30.4627 13.2936 30.9463C13.3445 31.1309 13.4973 31.2709 13.6882 31.2963L14.5982 31.4236V33.1227L13.6882 33.25C13.4973 33.2754 13.3445 33.4154 13.2936 33.6C13.1664 34.0836 12.9818 34.5354 12.74 34.9427C12.6382 35.1081 12.6509 35.3181 12.7655 35.4709L13.3127 36.2091L12.11 37.4118L11.3718 36.8581C11.2191 36.7436 11.0091 36.7309 10.8436 36.8263C10.4173 37.0745 9.96546 37.2591 9.50091 37.38C9.31637 37.4309 9.17637 37.5836 9.15091 37.7745L9.02364 38.6845H7.32455L7.19728 37.7809Z" fill="#6AC1EF"/>
<path d="M20.5609 34.93C20.5609 33.7337 19.5873 32.7537 18.3846 32.7537C17.1818 32.7537 16.2082 33.7273 16.2082 34.93C16.2082 36.1328 17.1818 37.1064 18.3846 37.1064C19.5873 37.1064 20.5609 36.1264 20.5609 34.93ZM17.1691 34.93C17.1691 34.2555 17.7164 33.7082 18.3909 33.7082C19.0655 33.7082 19.6127 34.2555 19.6127 34.93C19.6127 35.6046 19.0655 36.1518 18.3909 36.1518C17.7164 36.1518 17.1691 35.5982 17.1691 34.93Z" fill="#6AC1EF"/>
<path d="M29.61 34.93C29.61 33.7337 28.6363 32.7537 27.4336 32.7537C26.2309 32.7537 25.2636 33.7273 25.2636 34.93C25.2636 36.1328 26.2372 37.1064 27.44 37.1064C28.6427 37.1064 29.61 36.1264 29.61 34.93ZM26.2182 34.93C26.2182 34.2555 26.7654 33.7082 27.44 33.7082C28.1145 33.7082 28.6618 34.2555 28.6618 34.93C28.6618 35.6046 28.1145 36.1518 27.44 36.1518C26.7654 36.1518 26.2182 35.5982 26.2182 34.93Z" fill="#6AC1EF"/>
<path d="M38.6591 34.93C38.6591 33.7337 37.6855 32.7537 36.4828 32.7537C35.28 32.7537 34.3064 33.7273 34.3064 34.93C34.3064 36.1328 35.28 37.1064 36.4828 37.1064C37.6855 37.1064 38.6591 36.1264 38.6591 34.93ZM35.2673 34.93C35.2673 34.2555 35.8146 33.7082 36.4891 33.7082C37.1637 33.7082 37.7109 34.2555 37.7109 34.93C37.7109 35.6046 37.1637 36.1518 36.4891 36.1518C35.8146 36.1518 35.2673 35.5982 35.2673 34.93Z" fill="#6AC1EF"/>
<path d="M22.0945 6.89175C22.0945 5.78448 21.1973 4.88721 20.09 4.88721C18.9827 4.88721 18.0854 5.78448 18.0854 6.89175C18.0854 7.99266 18.9827 8.8963 20.09 8.8963C21.1973 8.8963 22.0945 7.99266 22.0945 6.89175ZM19.0464 6.89175C19.0464 6.31266 19.5173 5.84175 20.0964 5.84175C20.6754 5.84175 21.1464 6.31266 21.1464 6.89175C21.1464 7.47084 20.6754 7.94175 20.0964 7.94175C19.5173 7.94175 19.0464 7.47084 19.0464 6.89175Z" fill="#6AC1EF"/>
</svg>
