<svg width="42" height="42" viewBox="0 0 42 42" fill="none" xmlns="http://www.w3.org/2000/svg">
<path d="M41.2046 6.07092C41.2046 5.81001 40.9882 5.59364 40.7273 5.59364H14.1782V4.74728C14.1782 4.48637 13.9618 4.27001 13.7009 4.27001H12.1927V2.03001C12.1927 1.7691 11.9764 1.55273 11.7155 1.55273H7.48366C7.22275 1.55273 7.00639 1.7691 7.00639 2.03001V4.26364H5.50457C5.24366 4.26364 5.0273 4.48001 5.0273 4.74092V11.8427C5.0273 12.1036 5.24366 12.32 5.50457 12.32H7.01275V36.0373H5.04639C4.07911 36.0373 3.29639 36.82 3.29639 37.7873V39.9636C3.29639 40.2246 3.51275 40.4409 3.77366 40.4409H15.4318C15.6927 40.4409 15.9091 40.2246 15.9091 39.9636V37.7873C15.9091 36.82 15.1264 36.0373 14.1591 36.0373H12.1991V13.7582C12.1991 13.4973 11.9827 13.2809 11.7218 13.2809C11.4609 13.2809 11.2446 13.4973 11.2446 13.7582V15.7564L7.9673 13.4336V12.3327H13.7073C13.9682 12.3327 14.1846 12.1164 14.1846 11.8555V11.0091H28.0955V15.0055C27.6118 15.4127 27.3 16.0173 27.3 16.6982C27.3 17.2327 27.4973 17.71 27.8091 18.0982L23.6091 21.9673L23.6028 21.9736C23.5773 21.9991 23.5582 22.0309 23.5391 22.0627C23.5264 22.0818 23.5073 22.1009 23.5009 22.12C23.4882 22.1455 23.4882 22.1709 23.4818 22.1964C23.4755 22.2346 23.4627 22.2664 23.4627 22.3046V22.3173V27.7264H18.34C18.0791 27.7264 17.8628 27.9427 17.8628 28.2036V34.09V39.9764C17.8628 40.2373 18.0791 40.4536 18.34 40.4536H29.54H40.7273C40.9882 40.4536 41.2046 40.2373 41.2046 39.9764V34.09V28.2036C41.2046 27.9427 40.9882 27.7264 40.7273 27.7264H35.6046V22.3173C35.6046 22.3109 35.6046 22.3109 35.6046 22.3046C35.6046 22.2664 35.5918 22.2346 35.5855 22.1964C35.5791 22.1709 35.5791 22.1455 35.5664 22.12C35.5537 22.1009 35.5409 22.0818 35.5282 22.0627C35.5091 22.0309 35.49 21.9991 35.4646 21.9736L35.4582 21.9673L31.2582 18.0982C31.57 17.7164 31.7673 17.2327 31.7673 16.6982C31.7673 16.0173 31.4555 15.4127 30.9718 15.0055V11.0027H40.7273C40.7846 11.0027 40.8355 10.99 40.8927 10.9709C40.9118 10.9646 40.9246 10.9582 40.9437 10.9455C40.9627 10.9391 40.9818 10.9327 40.9946 10.92C41.0073 10.9136 41.0137 10.9009 41.0264 10.8882C41.0518 10.8691 41.0773 10.8436 41.0964 10.8182C41.1155 10.7927 41.1346 10.7736 41.1473 10.7418C41.16 10.7164 41.1727 10.6909 41.1791 10.6591C41.1918 10.6273 41.1982 10.5955 41.1982 10.5636C41.1982 10.5509 41.2046 10.5382 41.2046 10.5191V6.07092ZM11.2446 33.7718L8.3173 31.6909L11.2446 29.61V33.7718ZM7.9673 30.7618V26.6064L10.8946 28.6873L7.9673 30.7618ZM8.31093 25.6836L11.2382 23.6027V27.7582L8.31093 25.6836ZM7.9673 24.7609V20.6055L10.8946 22.6864L7.9673 24.7609ZM14.9546 37.7936V39.4927H4.25093V37.7936C4.25093 37.3546 4.6073 36.9982 5.04639 36.9982H14.1591C14.5982 36.9982 14.9546 37.3546 14.9546 37.7936ZM7.9673 36.0436V32.6136L11.2446 34.9427V36.0436H7.9673ZM11.2446 21.7573L8.3173 19.6764L11.2446 17.5955V21.7573ZM10.8946 16.6791L7.9673 18.76V14.6046L10.8946 16.6791ZM40.25 8.96001L38.6209 6.54819H40.25V8.96001ZM30.4818 10.0418H29.61L31.7164 6.92364L33.8228 10.0418H30.4818ZM26.6064 6.54819H30.8127L28.7064 9.66637L26.6064 6.54819ZM19.7018 6.92364L21.8082 10.0418H17.6018L19.7018 6.92364ZM16.7046 9.66637L14.6046 6.54819H18.8109L16.7046 9.66637ZM20.6055 6.54819H24.8118L22.7055 9.66637L20.6055 6.54819ZM25.7091 6.92364L27.8155 10.0418H23.6091L25.7091 6.92364ZM32.6073 6.54819H36.82L34.7137 9.66637L32.6073 6.54819ZM37.7237 6.92364L39.83 10.0418H35.6109L37.7237 6.92364ZM7.9673 2.50728H11.2446V4.26364H7.9673V2.50728ZM13.2237 11.3718H5.98184V5.22455H13.2237V11.3718ZM14.1782 7.63001L15.8009 10.0418H14.1782V7.63001ZM29.5273 18.9191C29.8773 18.9191 30.2018 18.83 30.4946 18.69L33.9055 21.8336H25.1427L28.5537 18.69C28.8527 18.8364 29.1773 18.9191 29.5273 18.9191ZM30.8 16.6918C30.8 17.3918 30.2273 17.9646 29.5273 17.9646C28.8273 17.9646 28.2546 17.3918 28.2546 16.6918C28.2546 15.9918 28.8273 15.4191 29.5273 15.4191C30.2273 15.4191 30.8 15.9918 30.8 16.6918ZM18.7982 28.6746H23.9209H29.0437V33.6064H18.7982V28.6746ZM18.7982 34.5609H29.0437V39.4927H18.7982V34.5609ZM40.25 39.4927H30.0046V34.5609H40.25V39.4927ZM40.25 33.6064H30.0046V28.6746H35.1273H40.25V33.6064ZM29.5273 27.72H24.4046V22.7882H34.65V27.72H29.5273ZM30.0046 14.5155C29.8518 14.4836 29.6928 14.4582 29.5273 14.4582C29.3618 14.4582 29.2028 14.4773 29.05 14.5155V10.9964H30.0046V14.5155Z" fill="#6AC1EF"/>
<path d="M20.5673 35.5219C20.3064 35.5219 20.09 35.7382 20.09 35.9991V38.0482C20.09 38.3091 20.3064 38.5255 20.5673 38.5255C20.8282 38.5255 21.0446 38.3091 21.0446 38.0482V35.9991C21.0446 35.7382 20.8282 35.5219 20.5673 35.5219Z" fill="#6AC1EF"/>
<path d="M22.8009 35.5219C22.54 35.5219 22.3237 35.7382 22.3237 35.9991V38.0482C22.3237 38.3091 22.54 38.5255 22.8009 38.5255C23.0619 38.5255 23.2782 38.3091 23.2782 38.0482V35.9991C23.2782 35.7382 23.0682 35.5219 22.8009 35.5219Z" fill="#6AC1EF"/>
<path d="M25.0409 35.5219C24.78 35.5219 24.5637 35.7382 24.5637 35.9991V38.0482C24.5637 38.3091 24.78 38.5255 25.0409 38.5255C25.3018 38.5255 25.5182 38.3091 25.5182 38.0482V35.9991C25.5182 35.7382 25.3018 35.5219 25.0409 35.5219Z" fill="#6AC1EF"/>
<path d="M27.2809 35.5219C27.02 35.5219 26.8036 35.7382 26.8036 35.9991V38.0482C26.8036 38.3091 27.02 38.5255 27.2809 38.5255C27.5418 38.5255 27.7582 38.3091 27.7582 38.0482V35.9991C27.7582 35.7382 27.5418 35.5219 27.2809 35.5219Z" fill="#6AC1EF"/>
<path d="M31.7673 38.5255C32.0282 38.5255 32.2446 38.3091 32.2446 38.0482V35.9991C32.2446 35.7382 32.0282 35.5219 31.7673 35.5219C31.5064 35.5219 31.29 35.7382 31.29 35.9991V38.0482C31.29 38.3155 31.5064 38.5255 31.7673 38.5255Z" fill="#6AC1EF"/>
<path d="M34.0073 38.5255C34.2682 38.5255 34.4846 38.3091 34.4846 38.0482V35.9991C34.4846 35.7382 34.2682 35.5219 34.0073 35.5219C33.7464 35.5219 33.53 35.7382 33.53 35.9991V38.0482C33.53 38.3155 33.7464 38.5255 34.0073 38.5255Z" fill="#6AC1EF"/>
<path d="M36.2473 38.5255C36.5082 38.5255 36.7246 38.3091 36.7246 38.0482V35.9991C36.7246 35.7382 36.5082 35.5219 36.2473 35.5219C35.9864 35.5219 35.77 35.7382 35.77 35.9991V38.0482C35.77 38.3155 35.98 38.5255 36.2473 38.5255Z" fill="#6AC1EF"/>
<path d="M38.4809 38.5255C38.7418 38.5255 38.9582 38.3091 38.9582 38.0482V35.9991C38.9582 35.7382 38.7418 35.5219 38.4809 35.5219C38.22 35.5219 38.0037 35.7382 38.0037 35.9991V38.0482C38.0037 38.3155 38.22 38.5255 38.4809 38.5255Z" fill="#6AC1EF"/>
<path d="M20.5673 29.6355C20.3064 29.6355 20.09 29.8519 20.09 30.1128V32.1619C20.09 32.4228 20.3064 32.6391 20.5673 32.6391C20.8282 32.6391 21.0446 32.4228 21.0446 32.1619V30.1128C21.0446 29.8519 20.8282 29.6355 20.5673 29.6355Z" fill="#6AC1EF"/>
<path d="M22.8009 29.6355C22.54 29.6355 22.3237 29.8519 22.3237 30.1128V32.1619C22.3237 32.4228 22.54 32.6391 22.8009 32.6391C23.0619 32.6391 23.2782 32.4228 23.2782 32.1619V30.1128C23.2782 29.8519 23.0682 29.6355 22.8009 29.6355Z" fill="#6AC1EF"/>
<path d="M25.0409 29.6355C24.78 29.6355 24.5637 29.8519 24.5637 30.1128V32.1619C24.5637 32.4228 24.78 32.6391 25.0409 32.6391C25.3018 32.6391 25.5182 32.4228 25.5182 32.1619V30.1128C25.5182 29.8519 25.3018 29.6355 25.0409 29.6355Z" fill="#6AC1EF"/>
<path d="M27.2809 29.6355C27.02 29.6355 26.8036 29.8519 26.8036 30.1128V32.1619C26.8036 32.4228 27.02 32.6391 27.2809 32.6391C27.5418 32.6391 27.7582 32.4228 27.7582 32.1619V30.1128C27.7582 29.8519 27.5418 29.6355 27.2809 29.6355Z" fill="#6AC1EF"/>
<path d="M31.7673 29.6355C31.5064 29.6355 31.29 29.8519 31.29 30.1128V32.1619C31.29 32.4228 31.5064 32.6391 31.7673 32.6391C32.0282 32.6391 32.2446 32.4228 32.2446 32.1619V30.1128C32.2446 29.8519 32.0346 29.6355 31.7673 29.6355Z" fill="#6AC1EF"/>
<path d="M34.0073 29.6355C33.7464 29.6355 33.53 29.8519 33.53 30.1128V32.1619C33.53 32.4228 33.7464 32.6391 34.0073 32.6391C34.2682 32.6391 34.4846 32.4228 34.4846 32.1619V30.1128C34.4846 29.8519 34.2682 29.6355 34.0073 29.6355Z" fill="#6AC1EF"/>
<path d="M36.2473 32.6391C36.5082 32.6391 36.7246 32.4228 36.7246 32.1619V30.1128C36.7246 29.8519 36.5082 29.6355 36.2473 29.6355C35.9864 29.6355 35.77 29.8519 35.77 30.1128V32.1619C35.77 32.4291 35.98 32.6391 36.2473 32.6391Z" fill="#6AC1EF"/>
<path d="M38.4809 32.6391C38.7418 32.6391 38.9582 32.4228 38.9582 32.1619V30.1128C38.9582 29.8519 38.7418 29.6355 38.4809 29.6355C38.22 29.6355 38.0037 29.8519 38.0037 30.1128V32.1619C38.0037 32.4291 38.22 32.6391 38.4809 32.6391Z" fill="#6AC1EF"/>
<path d="M26.1673 23.7491C25.9064 23.7491 25.69 23.9655 25.69 24.2264V26.2755C25.69 26.5364 25.9064 26.7528 26.1673 26.7528C26.4282 26.7528 26.6445 26.5364 26.6445 26.2755V24.2264C26.6445 23.9655 26.4345 23.7491 26.1673 23.7491Z" fill="#6AC1EF"/>
<path d="M28.4073 23.7491C28.1464 23.7491 27.93 23.9655 27.93 24.2264V26.2755C27.93 26.5364 28.1464 26.7528 28.4073 26.7528C28.6682 26.7528 28.8845 26.5364 28.8845 26.2755V24.2264C28.8845 23.9655 28.6682 23.7491 28.4073 23.7491Z" fill="#6AC1EF"/>
<path d="M30.6409 23.7491C30.38 23.7491 30.1636 23.9655 30.1636 24.2264V26.2755C30.1636 26.5364 30.38 26.7528 30.6409 26.7528C30.9018 26.7528 31.1182 26.5364 31.1182 26.2755V24.2264C31.1182 23.9655 30.9082 23.7491 30.6409 23.7491Z" fill="#6AC1EF"/>
<path d="M32.881 23.7491C32.6201 23.7491 32.4037 23.9655 32.4037 24.2264V26.2755C32.4037 26.5364 32.6201 26.7528 32.881 26.7528C33.1419 26.7528 33.3582 26.5364 33.3582 26.2755V24.2264C33.3582 23.9655 33.1419 23.7491 32.881 23.7491Z" fill="#6AC1EF"/>
<path d="M4.07274 10.5191C4.07274 10.2582 3.85638 10.0418 3.59547 10.0418H1.75002V6.54817H3.59547C3.85638 6.54817 4.07274 6.33181 4.07274 6.0709C4.07274 5.80999 3.85638 5.59363 3.59547 5.59363H1.27274C1.01183 5.59363 0.795471 5.80999 0.795471 6.0709V10.5191C0.795471 10.78 1.01183 10.9964 1.27274 10.9964H3.59547C3.85638 10.9964 4.07274 10.7864 4.07274 10.5191Z" fill="#6AC1EF"/>
</svg>
