<svg display="none" xmlns="http://www.w3.org/2000/svg">

    <symbol id="phone-icon" viewBox="0 0 32 32">
        <g>
            <path
                d="M26.096 15.2827C25.9156 15.2827 25.7578 15.2187 25.6227 15.0907C25.4876 14.9627 25.4093 14.8044 25.388 14.616C25.0982 12.3778 24.1573 10.4627 22.5653 8.87066C20.9733 7.27866 19.0587 6.33822 16.8213 6.04933C16.632 6.02711 16.4733 5.94933 16.3453 5.816C16.2173 5.68266 16.1533 5.52133 16.1533 5.332C16.1533 5.14266 16.2182 4.98444 16.348 4.85733C16.4778 4.73022 16.6356 4.68044 16.8213 4.708C19.4498 4.98444 21.6889 6.04755 23.5387 7.89733C25.3884 9.74711 26.4516 11.9867 26.728 14.616C26.7556 14.8 26.7049 14.9573 26.576 15.088C26.4462 15.2169 26.2862 15.2827 26.096 15.2827ZM20.6293 15.2813C20.4836 15.2813 20.3542 15.2329 20.2413 15.136C20.1284 15.0382 20.044 14.9084 19.988 14.7467C19.7587 13.9476 19.3511 13.2471 18.7653 12.6453C18.1796 12.0427 17.4876 11.6351 16.6893 11.4227C16.5276 11.3667 16.3978 11.2827 16.3 11.1707C16.2022 11.0587 16.1533 10.924 16.1533 10.7667C16.1533 10.5427 16.228 10.3644 16.3773 10.232C16.5267 10.0996 16.7044 10.0609 16.9107 10.116C18.0013 10.3693 18.9409 10.8907 19.7293 11.68C20.5178 12.4693 21.048 13.4178 21.32 14.5253C21.3751 14.7324 21.3298 14.9102 21.184 15.0587C21.0382 15.2071 20.8533 15.2804 20.6293 15.2813ZM25.24 26.6667C22.992 26.6667 20.6876 26.104 18.3267 24.9787C15.9658 23.8533 13.7724 22.2733 11.7467 20.2387C9.72178 18.2049 8.14622 16.0116 7.02 13.6587C5.89378 11.3058 5.33155 9.00622 5.33333 6.76C5.33333 6.35289 5.46667 6.01378 5.73333 5.74267C6 5.47155 6.33333 5.33511 6.73333 5.33333L10.0307 5.33333C10.3933 5.33333 10.7098 5.44755 10.98 5.676C11.2502 5.90444 11.4329 6.19733 11.528 6.55466L12.1893 9.73333C12.2516 10.1067 12.2404 10.4324 12.156 10.7107C12.0716 10.9889 11.9236 11.2169 11.712 11.3947L8.78667 14.1227C9.33422 15.1156 9.93911 16.0382 10.6013 16.8907C11.2636 17.7431 11.9702 18.5507 12.7213 19.3133C13.4947 20.0867 14.3276 20.8067 15.22 21.4733C16.1124 22.1391 17.092 22.7676 18.1587 23.3587L21.0107 20.456C21.2276 20.2222 21.4716 20.068 21.7427 19.9933C22.0129 19.9196 22.3124 19.9049 22.6413 19.9493L25.4453 20.5227C25.808 20.6116 26.1022 20.7942 26.328 21.0707C26.5538 21.3471 26.6667 21.6636 26.6667 22.02V25.2667C26.6667 25.6667 26.5307 26 26.2587 26.2667C25.9867 26.5333 25.6462 26.6667 25.24 26.6667ZM8.16 12.872L10.72 10.5187C10.8044 10.4502 10.8596 10.356 10.8853 10.236C10.912 10.116 10.9076 10.0049 10.872 9.90267L10.2813 7.076C10.2467 6.94 10.1867 6.83778 10.1013 6.76933C10.016 6.70089 9.90533 6.66666 9.76933 6.66666H7.03333C6.93111 6.66666 6.84578 6.70089 6.77733 6.76933C6.70889 6.83778 6.67467 6.92311 6.67467 7.02533C6.70044 7.93644 6.84311 8.88755 7.10267 9.87866C7.36222 10.8698 7.71378 11.8676 8.16 12.872ZM19.428 23.984C20.3293 24.4302 21.2893 24.7604 22.308 24.9747C23.3284 25.188 24.2173 25.3022 24.9747 25.3173C25.0769 25.3173 25.1622 25.2831 25.2307 25.2147C25.2991 25.1462 25.3333 25.0613 25.3333 24.96V22.2827C25.3333 22.1467 25.2991 22.0356 25.2307 21.9493C25.1622 21.864 25.06 21.8044 24.924 21.7707L22.4573 21.2653C22.3542 21.2307 22.264 21.2262 22.1867 21.252C22.1102 21.2787 22.0293 21.3342 21.944 21.4187L19.428 23.984Z" />
        </g>
    </symbol>

    <symbol id="file-icon" viewBox="0 0 32 32">
        <path
            d="M20.5 10V21.5C20.5 22.5609 20.0786 23.5783 19.3284 24.3284C18.5783 25.0786 17.5609 25.5 16.5 25.5C15.4391 25.5 14.4217 25.0786 13.6716 24.3284C12.9214 23.5783 12.5 22.5609 12.5 21.5V9C12.5 8.33696 12.7634 7.70107 13.2322 7.23223C13.7011 6.76339 14.337 6.5 15 6.5C15.663 6.5 16.2989 6.76339 16.7678 7.23223C17.2366 7.70107 17.5 8.33696 17.5 9V19.5C17.5 19.7652 17.3946 20.0196 17.2071 20.2071C17.0196 20.3946 16.7652 20.5 16.5 20.5C16.2348 20.5 15.9804 20.3946 15.7929 20.2071C15.6054 20.0196 15.5 19.7652 15.5 19.5V10H14V19.5C14 20.163 14.2634 20.7989 14.7322 21.2678C15.2011 21.7366 15.837 22 16.5 22C17.163 22 17.7989 21.7366 18.2678 21.2678C18.7366 20.7989 19 20.163 19 19.5V9C19 7.93913 18.5786 6.92172 17.8284 6.17157C17.0783 5.42143 16.0609 5 15 5C13.9391 5 12.9217 5.42143 12.1716 6.17157C11.4214 6.92172 11 7.93913 11 9V21.5C11 22.9587 11.5795 24.3576 12.6109 25.3891C13.6424 26.4205 15.0413 27 16.5 27C17.9587 27 19.3576 26.4205 20.3891 25.3891C21.4205 24.3576 22 22.9587 22 21.5V10H20.5Z" />
    </symbol>

</svg>